<?xml version="1.0" encoding="utf-8"?>
<!-- Generator: Adobe Illustrator 26.0.1, SVG Export Plug-In . SVG Version: 6.00 Build 0)  -->
<svg version="1.1" id="Layer_1" focusable="false" xmlns="http://www.w3.org/2000/svg" xmlns:xlink="http://www.w3.org/1999/xlink"
	 x="0px" y="0px" viewBox="0 0 576 512" style="enable-background:new 0 0 576 512;" xml:space="preserve">
<style type="text/css">
	.st0{fill:#FFFFFF;}
</style>
<path class="st0" d="M208,0c-29.9,0-54.7,20.5-61.8,48.2c-0.8,0-1.4-0.2-2.2-0.2c-35.3,0-64,28.7-64,64c0,4.8,0.6,9.5,1.7,14
	C52.5,138,32,166.6,32,200c0,12.6,3.2,24.3,8.3,34.9C16.3,248.7,0,274.3,0,304c0,33.3,20.4,61.9,49.4,73.9
	c-0.9,4.6-1.4,9.3-1.4,14.1c0,39.8,32.2,72,72,72c4.1,0,8.1-0.5,12-1.2c9.6,28.5,36.2,49.2,68,49.2c39.8,0,72-32.2,72-72V64
	C272,28.7,243.3,0,208,0z"/>
<polygon class="st0" points="493,111.8 430.6,7 304,7 304,176.9 350.2,176.9 367.9,209.5 304,209.5 304,258.9 372.3,258.9 
	398.2,207.7 492.3,207.7 501.6,237.3 423.9,237.3 398.1,289.2 304,289.2 304,419.8 416.3,419.8 398.1,453.6 304,453.6 304,506 
	427.3,506 531.8,336.8 471.4,336.8 449.8,380.1 346.3,380.1 346.3,345.4 423.9,345.4 449.8,297.9 549,297.9 576,256.5 507.7,148.5 
	406.4,148.5 378.9,97.4 346.9,97.4 346.9,56.7 400.9,56.7 428.3,111.8 "/>
</svg>
